<svg width="24" height="25" viewBox="0 0 24 25" fill="none" xmlns="http://www.w3.org/2000/svg">
<path d="M12 15.4499C11.8667 15.4499 11.7417 15.4291 11.625 15.3874C11.5084 15.3457 11.4 15.2749 11.3 15.1749L6.70005 10.5749C6.51672 10.3916 6.42505 10.1582 6.42505 9.8749C6.42505 9.59157 6.51672 9.35824 6.70005 9.1749C6.88338 8.99157 7.11672 8.8999 7.40005 8.8999C7.68338 8.8999 7.91672 8.99157 8.10005 9.1749L12 13.0749L15.9 9.1749C16.0834 8.99157 16.3167 8.8999 16.6 8.8999C16.8834 8.8999 17.1167 8.99157 17.3 9.1749C17.4834 9.35824 17.575 9.59157 17.575 9.8749C17.575 10.1582 17.4834 10.3916 17.3 10.5749L12.7 15.1749C12.6 15.2749 12.4917 15.3457 12.375 15.3874C12.2584 15.4291 12.1334 15.4499 12 15.4499Z" fill="#154FBF"/>
</svg>
