<svg width="24" height="24" viewBox="0 0 24 24" fill="none" xmlns="http://www.w3.org/2000/svg">
<path fill-rule="evenodd" clip-rule="evenodd" d="M12 19.5C12.2761 19.5 12.5 19.7239 12.5 20V21.5C12.5 21.7761 12.2761 22 12 22C11.7239 22 11.5 21.7761 11.5 21.5V20C11.5 19.7239 11.7239 19.5 12 19.5Z" fill="#EB5454"/>
<path fill-rule="evenodd" clip-rule="evenodd" d="M13.8351 2.9934C12.8944 1.81747 11.1058 1.81747 10.1651 2.9934C9.90892 3.31362 9.52106 3.50004 9.11097 3.50004L8.62041 3.50002C8.0465 3.49982 7.65477 3.49968 7.32002 3.59432C6.48405 3.83064 5.8307 4.48399 5.59438 5.31996C5.49974 5.65471 5.49988 6.04644 5.50008 6.62035L5.5001 14.9906C5.49997 14.9972 5.49997 15.0037 5.5001 15.0103L5.5001 15.5178C5.50009 15.9687 5.50009 16.3324 5.52029 16.6284C5.54105 16.9328 5.58484 17.2019 5.6904 17.4567C5.94413 18.0693 6.43082 18.556 7.04339 18.8097C7.29824 18.9153 7.56738 18.9591 7.87175 18.9798C8.05402 18.9923 8.26195 18.9971 8.5001 18.9989L8.50008 19.2697C8.49989 19.3979 8.49958 19.611 8.56103 19.8116C8.6373 20.0606 8.80746 20.2955 9.11741 20.4239C9.23443 20.4724 9.3473 20.4876 9.44248 20.4941C9.52953 20.5001 9.63184 20.5 9.73686 20.5H14.2633C14.3684 20.5 14.4707 20.5001 14.5577 20.4941C14.6529 20.4876 14.7658 20.4724 14.8828 20.4239C15.1927 20.2955 15.3629 20.0606 15.4392 19.8116C15.5006 19.611 15.5003 19.3979 15.5001 19.2697L15.5001 18.9989C15.7382 18.9971 15.9462 18.9923 16.1284 18.9798C16.4328 18.9591 16.702 18.9153 16.9568 18.8097C17.5694 18.556 18.0561 18.0693 18.3098 17.4567C18.4154 17.2019 18.4591 16.9328 18.4799 16.6284C18.5001 16.3324 18.5001 15.9687 18.5001 15.5178V15.0045C18.5001 15.003 18.5001 15.0015 18.5001 15C18.5001 14.9986 18.5001 14.9971 18.5001 14.9956L18.5001 6.62035C18.5003 6.04644 18.5005 5.65471 18.4058 5.31996C18.1695 4.48399 17.5161 3.83064 16.6802 3.59432C16.3454 3.49968 15.9537 3.49982 15.3798 3.50002L14.8892 3.50004C14.4791 3.50004 14.0913 3.31362 13.8351 2.9934ZM17.5001 14.3167V6.7016C17.5001 6.01512 17.4953 5.77528 17.4435 5.59199C17.3017 5.09041 16.9097 4.6984 16.4081 4.5566C16.2249 4.50479 15.985 4.50004 15.2985 4.50004H14.8892C14.1754 4.50004 13.5002 4.17553 13.0542 3.61809C12.5138 2.94257 11.4864 2.94257 10.946 3.61809C10.5 4.17553 9.82484 4.50004 9.11097 4.50004H8.70166C8.01518 4.50004 7.77534 4.50479 7.59205 4.5566C7.09047 4.6984 6.69846 5.09041 6.55666 5.59199C6.50485 5.77528 6.5001 6.01512 6.5001 6.7016V14.6036C8.29193 15.0032 9.50309 14.9735 11.3814 14.5143C11.9101 14.3851 12.2917 14.1238 12.7353 13.8202C12.8071 13.771 12.8805 13.7208 12.9564 13.6698C13.4898 13.3115 14.1189 12.9473 15.0295 13.0009C15.8596 13.0497 16.4735 13.5288 16.9258 13.8869L16.9877 13.9359C17.1815 14.0896 17.3422 14.2171 17.5001 14.3167ZM9.5001 19.25V19H14.5001V19.25C14.5001 19.324 14.4998 19.3788 14.4963 19.4287C14.4942 19.459 14.4913 19.4809 14.4883 19.4965C14.4396 19.4998 14.3723 19.5 14.2501 19.5H9.7501C9.62791 19.5 9.56056 19.4998 9.5119 19.4965C9.50894 19.4809 9.50598 19.459 9.50386 19.4287C9.50037 19.3788 9.5001 19.324 9.5001 19.25Z" fill="#EB5454"/>
</svg>
