<svg width="58" height="58" viewBox="0 0 58 58" fill="none" xmlns="http://www.w3.org/2000/svg">
<path d="M38.0288 29.8485C39.589 28.756 40.2019 26.8387 39.6338 25.218C39.4511 24.6968 39.5452 24.0743 39.9976 23.7575L46.135 19.46C46.3652 19.2989 46.4174 18.9797 46.2506 18.7536L43.7879 15.4155C43.6268 15.1972 43.321 15.1472 43.0987 15.3028L37.0454 19.5414C36.593 19.8581 35.9758 19.7336 35.5485 19.3836C34.2199 18.2955 32.2086 18.2157 30.6483 19.3082C28.7906 20.609 28.2759 23.0792 29.4987 24.8256C30.018 25.5672 30.7672 26.0591 31.5996 26.2799C31.7284 26.3141 31.8148 26.4375 31.8029 26.5702C31.7257 27.4279 31.9316 28.3001 32.4509 29.0417C33.6737 30.7881 36.171 31.1493 38.0288 29.8485Z" fill="white"/>
<path d="M19.294 27.2584C17.7362 28.3493 17.1253 30.2652 17.6939 31.8854C17.8768 32.4065 17.7828 33.0291 17.3304 33.3458L11.3088 37.5622C11.0872 37.7173 11.0292 38.0205 11.1778 38.2465L13.4569 41.7131C13.6117 41.9487 13.9306 42.0097 14.1615 41.848L20.2826 37.562C20.735 37.2452 21.3521 37.3698 21.7793 37.7199C23.1073 38.8084 25.1166 38.8896 26.6744 37.7988C28.5293 36.5 29.0417 34.0314 27.8189 32.285C27.2996 31.5433 26.5508 31.0512 25.719 30.8299C25.5903 30.7957 25.504 30.6724 25.5159 30.5398C25.5924 29.6825 25.3861 28.8105 24.8667 28.0688C23.6439 26.3225 21.1489 25.9596 19.294 27.2584Z" fill="white"/>
<path fill-rule="evenodd" clip-rule="evenodd" d="M21.6044 18.4543C22.0757 18.1243 22.7252 18.2388 23.0552 18.7101L23.9001 19.9168C24.2301 20.3881 24.1156 21.0376 23.6443 21.3676C23.1731 21.6975 22.5235 21.583 22.1936 21.1118L21.3486 19.905C21.0186 19.4338 21.1332 18.7842 21.6044 18.4543Z" fill="white"/>
<path fill-rule="evenodd" clip-rule="evenodd" d="M26.667 17.9796C27.2336 18.0795 27.6119 18.6198 27.512 19.1863L27.3311 20.2122C27.2312 20.7787 26.6909 21.157 26.1244 21.0571C25.5578 20.9572 25.1795 20.417 25.2794 19.8504L25.4603 18.8246C25.5602 18.258 26.1005 17.8797 26.667 17.9796Z" fill="white"/>
<path fill-rule="evenodd" clip-rule="evenodd" d="M19.4267 23.0492C19.5266 22.4827 20.0669 22.1044 20.6334 22.2043L21.6593 22.3851C22.2258 22.485 22.6041 23.0253 22.5042 23.5919C22.4043 24.1584 21.864 24.5367 21.2975 24.4368L20.2716 24.2559C19.7051 24.156 19.3268 23.6158 19.4267 23.0492Z" fill="white"/>
<path fill-rule="evenodd" clip-rule="evenodd" d="M36.3187 39.4683C35.8474 39.7983 35.1979 39.6838 34.8679 39.2125L34.023 38.0058C33.693 37.5345 33.8075 36.885 34.2788 36.555C34.75 36.2251 35.3996 36.3396 35.7295 36.8109L36.5745 38.0176C36.9045 38.4888 36.7899 39.1384 36.3187 39.4683Z" fill="white"/>
<path fill-rule="evenodd" clip-rule="evenodd" d="M31.2561 39.9432C30.6895 39.8433 30.3112 39.3031 30.4111 38.7365L30.592 37.7107C30.6919 37.1441 31.2322 36.7658 31.7987 36.8657C32.3653 36.9656 32.7436 37.5059 32.6437 38.0724L32.4628 39.0983C32.3629 39.6648 31.8226 40.0431 31.2561 39.9432Z" fill="white"/>
<path fill-rule="evenodd" clip-rule="evenodd" d="M38.4964 34.8734C38.3965 35.4399 37.8562 35.8182 37.2897 35.7183L36.2638 35.5375C35.6973 35.4376 35.319 34.8973 35.4189 34.3307C35.5188 33.7642 36.0591 33.3859 36.6256 33.4858L37.6515 33.6667C38.218 33.7666 38.5963 34.3068 38.4964 34.8734Z" fill="white"/>
</svg>
