<svg width="32" height="32" viewBox="0 0 32 32" fill="none" xmlns="http://www.w3.org/2000/svg">
<rect width="32" height="32" rx="16" transform="matrix(1 0 0 -1 0 32)" fill="#DBF0FF"/>
<g clip-path="url(#clip0_117_510)">
<path d="M9.33348 16.9524H19.9716L15.324 21.6C14.9525 21.9714 14.9525 22.5809 15.324 22.9524C15.6954 23.3238 16.2954 23.3238 16.6668 22.9524L22.943 16.6762C23.3144 16.3048 23.3144 15.7048 22.943 15.3333L16.6763 9.04761C16.3049 8.67619 15.7049 8.67619 15.3335 9.04761C14.9621 9.41904 14.9621 10.019 15.3335 10.3905L19.9716 15.0476H9.33348C8.80967 15.0476 8.3811 15.4762 8.3811 16C8.3811 16.5238 8.80967 16.9524 9.33348 16.9524Z" fill="black"/>
</g>
<defs>
<clipPath id="clip0_117_510">
<rect width="22.8571" height="22.8571" fill="white" transform="translate(4.57153 4.57153)"/>
</clipPath>
</defs>
</svg>
