<svg width="32" height="32" viewBox="0 0 32 32" fill="none" xmlns="http://www.w3.org/2000/svg">
<rect x="32" y="32" width="32" height="32" rx="16" transform="rotate(180 32 32)" fill="#FFE1E1"/>
<g clip-path="url(#clip0_117_502)">
<path d="M22.6668 16.9524H12.0287L16.6763 21.6C17.0477 21.9714 17.0477 22.5809 16.6763 22.9524C16.3049 23.3238 15.7049 23.3238 15.3334 22.9524L9.05723 16.6762C8.68581 16.3048 8.68581 15.7048 9.05723 15.3333L15.3239 9.04761C15.6953 8.67619 16.2953 8.67619 16.6668 9.04761C17.0382 9.41904 17.0382 10.019 16.6668 10.3905L12.0287 15.0476H22.6668C23.1906 15.0476 23.6191 15.4762 23.6191 16C23.6191 16.5238 23.1906 16.9524 22.6668 16.9524Z" fill="black"/>
</g>
<defs>
<clipPath id="clip0_117_502">
<rect width="22.8571" height="22.8571" fill="white" transform="matrix(-1 0 0 1 27.4287 4.57153)"/>
</clipPath>
</defs>
</svg>
